<mxfile host="app.diagrams.net" modified="2023-06-20T18:40:11.172Z" agent="Mozilla/5.0 (Windows NT 10.0; Win64; x64) AppleWebKit/537.36 (KHTML, like Gecko) Chrome/114.0.0.0 Safari/537.36" etag="KLL0rT-IUmX6ncrd948H" version="21.5.0" type="google">
  <diagram name="Page-1" id="rX5tXoLItw1xrQTYMiXd">
    <mxGraphModel grid="1" page="1" gridSize="10" guides="1" tooltips="1" connect="1" arrows="1" fold="1" pageScale="1" pageWidth="850" pageHeight="1100" math="0" shadow="0">
      <root>
        <mxCell id="0" />
        <mxCell id="1" parent="0" />
        <mxCell id="F-xklvVKPUdGS2QKWO5a-1" value="login" style="ellipse;whiteSpace=wrap;html=1;" vertex="1" parent="1">
          <mxGeometry x="170" y="40" width="120" height="80" as="geometry" />
        </mxCell>
        <mxCell id="F-xklvVKPUdGS2QKWO5a-2" value="category" style="ellipse;whiteSpace=wrap;html=1;" vertex="1" parent="1">
          <mxGeometry x="170" y="150" width="120" height="80" as="geometry" />
        </mxCell>
        <mxCell id="F-xklvVKPUdGS2QKWO5a-3" value="manage item" style="ellipse;whiteSpace=wrap;html=1;" vertex="1" parent="1">
          <mxGeometry x="170" y="260" width="120" height="80" as="geometry" />
        </mxCell>
        <mxCell id="F-xklvVKPUdGS2QKWO5a-4" value="order" style="ellipse;whiteSpace=wrap;html=1;" vertex="1" parent="1">
          <mxGeometry x="170" y="370" width="120" height="80" as="geometry" />
        </mxCell>
        <mxCell id="F-xklvVKPUdGS2QKWO5a-5" value="customer" style="rounded=1;whiteSpace=wrap;html=1;" vertex="1" parent="1">
          <mxGeometry y="50" width="120" height="60" as="geometry" />
        </mxCell>
        <mxCell id="F-xklvVKPUdGS2QKWO5a-6" value="admin &lt;br&gt;manager" style="rounded=1;whiteSpace=wrap;html=1;" vertex="1" parent="1">
          <mxGeometry x="350" y="50" width="120" height="60" as="geometry" />
        </mxCell>
        <mxCell id="F-xklvVKPUdGS2QKWO5a-7" value="category&lt;br&gt;manager" style="rounded=1;whiteSpace=wrap;html=1;" vertex="1" parent="1">
          <mxGeometry x="350" y="160" width="120" height="60" as="geometry" />
        </mxCell>
        <mxCell id="F-xklvVKPUdGS2QKWO5a-8" value="item&lt;br&gt;manager" style="rounded=1;whiteSpace=wrap;html=1;" vertex="1" parent="1">
          <mxGeometry x="350" y="270" width="120" height="60" as="geometry" />
        </mxCell>
        <mxCell id="F-xklvVKPUdGS2QKWO5a-9" value="order&amp;nbsp;&lt;br&gt;manager" style="rounded=1;whiteSpace=wrap;html=1;" vertex="1" parent="1">
          <mxGeometry x="350" y="380" width="120" height="60" as="geometry" />
        </mxCell>
        <mxCell id="F-xklvVKPUdGS2QKWO5a-11" value="" style="endArrow=classic;html=1;rounded=0;entryX=1;entryY=1;entryDx=0;entryDy=0;exitX=0.083;exitY=0.875;exitDx=0;exitDy=0;exitPerimeter=0;" edge="1" parent="1" source="F-xklvVKPUdGS2QKWO5a-1" target="F-xklvVKPUdGS2QKWO5a-5">
          <mxGeometry width="50" height="50" relative="1" as="geometry">
            <mxPoint x="110" y="270" as="sourcePoint" />
            <mxPoint x="160" y="220" as="targetPoint" />
          </mxGeometry>
        </mxCell>
        <mxCell id="F-xklvVKPUdGS2QKWO5a-12" value="" style="endArrow=classic;html=1;rounded=0;exitX=0.75;exitY=1;exitDx=0;exitDy=0;entryX=-0.017;entryY=0.625;entryDx=0;entryDy=0;entryPerimeter=0;" edge="1" parent="1" source="F-xklvVKPUdGS2QKWO5a-5" target="F-xklvVKPUdGS2QKWO5a-2">
          <mxGeometry width="50" height="50" relative="1" as="geometry">
            <mxPoint x="110" y="240" as="sourcePoint" />
            <mxPoint x="90" y="200" as="targetPoint" />
            <Array as="points">
              <mxPoint x="90" y="200" />
            </Array>
          </mxGeometry>
        </mxCell>
        <mxCell id="F-xklvVKPUdGS2QKWO5a-13" value="" style="endArrow=classic;html=1;rounded=0;entryX=0.608;entryY=0.967;entryDx=0;entryDy=0;entryPerimeter=0;exitX=0.025;exitY=0.75;exitDx=0;exitDy=0;exitPerimeter=0;" edge="1" parent="1" source="F-xklvVKPUdGS2QKWO5a-2" target="F-xklvVKPUdGS2QKWO5a-5">
          <mxGeometry width="50" height="50" relative="1" as="geometry">
            <mxPoint x="110" y="240" as="sourcePoint" />
            <mxPoint x="160" y="190" as="targetPoint" />
            <Array as="points">
              <mxPoint x="73" y="210" />
            </Array>
          </mxGeometry>
        </mxCell>
        <mxCell id="F-xklvVKPUdGS2QKWO5a-14" value="" style="endArrow=classic;html=1;rounded=0;exitX=0.358;exitY=1.033;exitDx=0;exitDy=0;exitPerimeter=0;entryX=0.042;entryY=0.738;entryDx=0;entryDy=0;entryPerimeter=0;" edge="1" parent="1" source="F-xklvVKPUdGS2QKWO5a-5" target="F-xklvVKPUdGS2QKWO5a-3">
          <mxGeometry width="50" height="50" relative="1" as="geometry">
            <mxPoint x="110" y="240" as="sourcePoint" />
            <mxPoint x="160" y="190" as="targetPoint" />
            <Array as="points">
              <mxPoint x="43" y="320" />
            </Array>
          </mxGeometry>
        </mxCell>
        <mxCell id="F-xklvVKPUdGS2QKWO5a-15" value="" style="endArrow=classic;html=1;rounded=0;exitX=0;exitY=0.5;exitDx=0;exitDy=0;entryX=0.5;entryY=1;entryDx=0;entryDy=0;" edge="1" parent="1" source="F-xklvVKPUdGS2QKWO5a-3" target="F-xklvVKPUdGS2QKWO5a-5">
          <mxGeometry width="50" height="50" relative="1" as="geometry">
            <mxPoint x="110" y="240" as="sourcePoint" />
            <mxPoint x="160" y="190" as="targetPoint" />
            <Array as="points">
              <mxPoint x="60" y="300" />
            </Array>
          </mxGeometry>
        </mxCell>
        <mxCell id="F-xklvVKPUdGS2QKWO5a-16" value="" style="endArrow=classic;html=1;rounded=0;exitX=0.25;exitY=1;exitDx=0;exitDy=0;entryX=0.008;entryY=0.388;entryDx=0;entryDy=0;entryPerimeter=0;" edge="1" parent="1" source="F-xklvVKPUdGS2QKWO5a-5" target="F-xklvVKPUdGS2QKWO5a-4">
          <mxGeometry width="50" height="50" relative="1" as="geometry">
            <mxPoint x="110" y="300" as="sourcePoint" />
            <mxPoint x="160" y="250" as="targetPoint" />
            <Array as="points">
              <mxPoint x="30" y="400" />
            </Array>
          </mxGeometry>
        </mxCell>
        <mxCell id="F-xklvVKPUdGS2QKWO5a-17" value="" style="endArrow=classic;html=1;rounded=0;exitX=-0.033;exitY=0.65;exitDx=0;exitDy=0;exitPerimeter=0;entryX=0.067;entryY=1.017;entryDx=0;entryDy=0;entryPerimeter=0;" edge="1" parent="1" source="F-xklvVKPUdGS2QKWO5a-4" target="F-xklvVKPUdGS2QKWO5a-5">
          <mxGeometry width="50" height="50" relative="1" as="geometry">
            <mxPoint x="110" y="300" as="sourcePoint" />
            <mxPoint x="160" y="250" as="targetPoint" />
            <Array as="points">
              <mxPoint x="10" y="420" />
            </Array>
          </mxGeometry>
        </mxCell>
        <mxCell id="F-xklvVKPUdGS2QKWO5a-18" value="" style="endArrow=classic;html=1;rounded=0;exitX=1;exitY=0.75;exitDx=0;exitDy=0;exitPerimeter=0;entryX=0.017;entryY=0.867;entryDx=0;entryDy=0;entryPerimeter=0;" edge="1" parent="1" source="F-xklvVKPUdGS2QKWO5a-1" target="F-xklvVKPUdGS2QKWO5a-6">
          <mxGeometry width="50" height="50" relative="1" as="geometry">
            <mxPoint x="290" y="300" as="sourcePoint" />
            <mxPoint x="340" y="250" as="targetPoint" />
          </mxGeometry>
        </mxCell>
        <mxCell id="F-xklvVKPUdGS2QKWO5a-19" value="" style="endArrow=classic;html=1;rounded=0;entryX=1;entryY=0.5;entryDx=0;entryDy=0;exitX=0;exitY=0.5;exitDx=0;exitDy=0;" edge="1" parent="1" source="F-xklvVKPUdGS2QKWO5a-6" target="F-xklvVKPUdGS2QKWO5a-1">
          <mxGeometry width="50" height="50" relative="1" as="geometry">
            <mxPoint x="290" y="300" as="sourcePoint" />
            <mxPoint x="340" y="250" as="targetPoint" />
          </mxGeometry>
        </mxCell>
        <mxCell id="F-xklvVKPUdGS2QKWO5a-20" value="" style="endArrow=classic;html=1;rounded=0;exitX=0.992;exitY=0.725;exitDx=0;exitDy=0;exitPerimeter=0;" edge="1" parent="1" source="F-xklvVKPUdGS2QKWO5a-2">
          <mxGeometry width="50" height="50" relative="1" as="geometry">
            <mxPoint x="290" y="300" as="sourcePoint" />
            <mxPoint x="360" y="208" as="targetPoint" />
          </mxGeometry>
        </mxCell>
        <mxCell id="F-xklvVKPUdGS2QKWO5a-21" value="" style="endArrow=classic;html=1;rounded=0;entryX=1;entryY=0.5;entryDx=0;entryDy=0;exitX=0;exitY=0.5;exitDx=0;exitDy=0;" edge="1" parent="1" source="F-xklvVKPUdGS2QKWO5a-7" target="F-xklvVKPUdGS2QKWO5a-2">
          <mxGeometry width="50" height="50" relative="1" as="geometry">
            <mxPoint x="290" y="300" as="sourcePoint" />
            <mxPoint x="340" y="250" as="targetPoint" />
          </mxGeometry>
        </mxCell>
        <mxCell id="F-xklvVKPUdGS2QKWO5a-22" value="" style="endArrow=classic;html=1;rounded=0;exitX=1;exitY=0.375;exitDx=0;exitDy=0;exitPerimeter=0;" edge="1" parent="1" source="F-xklvVKPUdGS2QKWO5a-3">
          <mxGeometry width="50" height="50" relative="1" as="geometry">
            <mxPoint x="290" y="300" as="sourcePoint" />
            <mxPoint x="350" y="290" as="targetPoint" />
          </mxGeometry>
        </mxCell>
        <mxCell id="F-xklvVKPUdGS2QKWO5a-23" value="" style="endArrow=classic;html=1;rounded=0;exitX=0;exitY=0.75;exitDx=0;exitDy=0;entryX=0.958;entryY=0.675;entryDx=0;entryDy=0;entryPerimeter=0;" edge="1" parent="1" source="F-xklvVKPUdGS2QKWO5a-8" target="F-xklvVKPUdGS2QKWO5a-3">
          <mxGeometry width="50" height="50" relative="1" as="geometry">
            <mxPoint x="290" y="300" as="sourcePoint" />
            <mxPoint x="340" y="250" as="targetPoint" />
          </mxGeometry>
        </mxCell>
        <mxCell id="F-xklvVKPUdGS2QKWO5a-24" value="" style="endArrow=classic;html=1;rounded=0;exitX=0.975;exitY=0.675;exitDx=0;exitDy=0;exitPerimeter=0;entryX=0;entryY=0.75;entryDx=0;entryDy=0;" edge="1" parent="1" source="F-xklvVKPUdGS2QKWO5a-4" target="F-xklvVKPUdGS2QKWO5a-9">
          <mxGeometry width="50" height="50" relative="1" as="geometry">
            <mxPoint x="290" y="350" as="sourcePoint" />
            <mxPoint x="340" y="300" as="targetPoint" />
          </mxGeometry>
        </mxCell>
        <mxCell id="F-xklvVKPUdGS2QKWO5a-25" value="" style="endArrow=classic;html=1;rounded=0;exitX=0;exitY=0.4;exitDx=0;exitDy=0;entryX=1.017;entryY=0.413;entryDx=0;entryDy=0;entryPerimeter=0;exitPerimeter=0;" edge="1" parent="1" source="F-xklvVKPUdGS2QKWO5a-9" target="F-xklvVKPUdGS2QKWO5a-4">
          <mxGeometry width="50" height="50" relative="1" as="geometry">
            <mxPoint x="290" y="350" as="sourcePoint" />
            <mxPoint x="340" y="300" as="targetPoint" />
          </mxGeometry>
        </mxCell>
        <mxCell id="F-xklvVKPUdGS2QKWO5a-27" value="" style="endArrow=classic;html=1;rounded=0;entryX=0;entryY=0.5;entryDx=0;entryDy=0;exitX=1;exitY=0.5;exitDx=0;exitDy=0;" edge="1" parent="1" source="F-xklvVKPUdGS2QKWO5a-5">
          <mxGeometry width="50" height="50" relative="1" as="geometry">
            <mxPoint x="120" y="80" as="sourcePoint" />
            <mxPoint x="180" y="80" as="targetPoint" />
            <Array as="points" />
          </mxGeometry>
        </mxCell>
        <mxCell id="F-xklvVKPUdGS2QKWO5a-30" value="login&lt;br&gt;req" style="text;html=1;align=center;verticalAlign=middle;resizable=0;points=[];autosize=1;strokeColor=none;fillColor=none;" vertex="1" parent="1">
          <mxGeometry x="120" y="40" width="50" height="40" as="geometry" />
        </mxCell>
        <mxCell id="F-xklvVKPUdGS2QKWO5a-31" value="respond" style="text;html=1;align=center;verticalAlign=middle;resizable=0;points=[];autosize=1;strokeColor=none;fillColor=none;" vertex="1" parent="1">
          <mxGeometry x="115" y="78" width="70" height="30" as="geometry" />
        </mxCell>
        <mxCell id="F-xklvVKPUdGS2QKWO5a-32" value="add/edit&amp;nbsp;&lt;br&gt;category" style="text;html=1;align=center;verticalAlign=middle;resizable=0;points=[];autosize=1;strokeColor=none;fillColor=none;" vertex="1" parent="1">
          <mxGeometry x="90" y="165" width="70" height="40" as="geometry" />
        </mxCell>
        <mxCell id="F-xklvVKPUdGS2QKWO5a-33" value="respond" style="text;html=1;align=center;verticalAlign=middle;resizable=0;points=[];autosize=1;strokeColor=none;fillColor=none;" vertex="1" parent="1">
          <mxGeometry x="90" y="210" width="70" height="30" as="geometry" />
        </mxCell>
        <mxCell id="F-xklvVKPUdGS2QKWO5a-35" value="add/edit&lt;br&gt;item" style="text;html=1;align=center;verticalAlign=middle;resizable=0;points=[];autosize=1;strokeColor=none;fillColor=none;" vertex="1" parent="1">
          <mxGeometry x="85" y="260" width="70" height="40" as="geometry" />
        </mxCell>
        <mxCell id="F-xklvVKPUdGS2QKWO5a-36" value="respond" style="text;html=1;align=center;verticalAlign=middle;resizable=0;points=[];autosize=1;strokeColor=none;fillColor=none;" vertex="1" parent="1">
          <mxGeometry x="85" y="318" width="70" height="30" as="geometry" />
        </mxCell>
        <mxCell id="F-xklvVKPUdGS2QKWO5a-37" value="manage&lt;br&gt;order" style="text;html=1;align=center;verticalAlign=middle;resizable=0;points=[];autosize=1;strokeColor=none;fillColor=none;" vertex="1" parent="1">
          <mxGeometry x="65" y="363" width="70" height="40" as="geometry" />
        </mxCell>
        <mxCell id="F-xklvVKPUdGS2QKWO5a-38" value="respond" style="text;html=1;align=center;verticalAlign=middle;resizable=0;points=[];autosize=1;strokeColor=none;fillColor=none;" vertex="1" parent="1">
          <mxGeometry x="65" y="420" width="70" height="30" as="geometry" />
        </mxCell>
        <mxCell id="F-xklvVKPUdGS2QKWO5a-39" value="check&amp;nbsp;" style="text;html=1;align=center;verticalAlign=middle;resizable=0;points=[];autosize=1;strokeColor=none;fillColor=none;" vertex="1" parent="1">
          <mxGeometry x="290" y="48" width="60" height="30" as="geometry" />
        </mxCell>
        <mxCell id="F-xklvVKPUdGS2QKWO5a-40" value="reply" style="text;html=1;align=center;verticalAlign=middle;resizable=0;points=[];autosize=1;strokeColor=none;fillColor=none;" vertex="1" parent="1">
          <mxGeometry x="295" y="98" width="50" height="30" as="geometry" />
        </mxCell>
        <mxCell id="F-xklvVKPUdGS2QKWO5a-41" value="data" style="text;html=1;align=center;verticalAlign=middle;resizable=0;points=[];autosize=1;strokeColor=none;fillColor=none;" vertex="1" parent="1">
          <mxGeometry x="295" y="160" width="50" height="30" as="geometry" />
        </mxCell>
        <mxCell id="F-xklvVKPUdGS2QKWO5a-42" value="reply" style="text;html=1;align=center;verticalAlign=middle;resizable=0;points=[];autosize=1;strokeColor=none;fillColor=none;" vertex="1" parent="1">
          <mxGeometry x="295" y="210" width="50" height="30" as="geometry" />
        </mxCell>
        <mxCell id="F-xklvVKPUdGS2QKWO5a-43" value="data" style="text;html=1;align=center;verticalAlign=middle;resizable=0;points=[];autosize=1;strokeColor=none;fillColor=none;" vertex="1" parent="1">
          <mxGeometry x="295" y="258" width="50" height="30" as="geometry" />
        </mxCell>
        <mxCell id="F-xklvVKPUdGS2QKWO5a-44" value="reply" style="text;html=1;align=center;verticalAlign=middle;resizable=0;points=[];autosize=1;strokeColor=none;fillColor=none;" vertex="1" parent="1">
          <mxGeometry x="295" y="318" width="50" height="30" as="geometry" />
        </mxCell>
        <mxCell id="F-xklvVKPUdGS2QKWO5a-45" value="report" style="text;html=1;align=center;verticalAlign=middle;resizable=0;points=[];autosize=1;strokeColor=none;fillColor=none;" vertex="1" parent="1">
          <mxGeometry x="295" y="378" width="50" height="30" as="geometry" />
        </mxCell>
        <mxCell id="F-xklvVKPUdGS2QKWO5a-46" value="reply" style="text;html=1;align=center;verticalAlign=middle;resizable=0;points=[];autosize=1;strokeColor=none;fillColor=none;" vertex="1" parent="1">
          <mxGeometry x="295" y="430" width="50" height="30" as="geometry" />
        </mxCell>
      </root>
    </mxGraphModel>
  </diagram>
</mxfile>
